<svg xmlns="http://www.w3.org/2000/svg" width="782.826" height="193.261" viewBox="0 0 782.826 193.261">
  <g id="Group_489" data-name="Group 489" transform="translate(100 0)">
    <g id="Group_490" data-name="Group 490">
      <path id="Path_1103" data-name="Path 1103" d="M697.895,157.979c-36.458-35.755-86.443-56.888-137.46-58.542-50.39-1.634-97.626,17.693-142.421,38.681-45.044,21.1-90.305,45.424-140.187,52.535a184.18,184.18,0,0,1-78.539-5.723c-26.233-7.779-50.7-20.9-72.724-37.026C79.516,113.457,44.8,65.5,12.445,17.714Q6.511,8.948.626.15C.39-.2-.181.129.056.483,32,48.107,64.533,96.718,108.424,134.341c39.858,34.165,89.942,59.169,143.363,58.918,49.313-.232,95.336-20.834,139.076-41.545C436.6,130.062,483.2,106.145,534.3,100.978,587.273,95.62,642,112.319,683.319,145.826q7.358,5.967,14.11,12.62c.3.3.77-.169.466-.466" transform="translate(-100 0)" fill="#f3806e"/>
      <path id="Path_1104" data-name="Path 1104" d="M759.25,171.838c-46.365,14.931-92.378-12.861-127.975-39.972-18.53-14.113-36.482-29.114-56.378-41.319-20.005-12.272-41.919-20.887-65.185-24.37a170.922,170.922,0,0,0-70.127,3.937c-23.284,6.35-44.414,18.245-64.843,30.8-39.439,24.242-85.12,55.678-133.956,43.237a90.056,90.056,0,0,1-50.855-34.769,88.958,88.958,0,0,1-11.2-80.155c1.1-3.22-3.994-4.6-5.088-1.4a95.351,95.351,0,0,0,2.225,66.88A93.7,93.7,0,0,0,218.228,141c20.19,10.788,43.089,13.239,65.446,9.048,24.638-4.618,47.337-16.291,68.632-29.1,21.055-12.661,41.448-26.645,63.909-36.78A164.109,164.109,0,0,1,558.394,87.3c21.453,10.975,40.424,26.02,59.367,40.749,35.738,27.788,78.188,58.329,126.158,52.525a89.52,89.52,0,0,0,16.734-3.65c3.219-1.037,1.842-6.133-1.4-5.088" transform="translate(-79.658 -12.286)" fill="#665cd7"/>
    </g>
  </g>
</svg>
