<svg xmlns="http://www.w3.org/2000/svg" width="14" height="15.806" viewBox="0 0 14 15.806">
  <path id="icons8-time" d="M11.6,3a.542.542,0,1,0,0,1.083h.361v.75a6.507,6.507,0,1,0,5.5,2.28l.659-.659a.542.542,0,1,0-.766-.766l-.659.659a6.465,6.465,0,0,0-3.651-1.514v-.75H13.4A.542.542,0,1,0,13.4,3Zm.839,2.892a.542.542,0,0,0,.131,0A5.4,5.4,0,0,1,16.3,7.445a.542.542,0,0,0,.057.057,5.42,5.42,0,1,1-3.923-1.609Zm2.4,2.519a.542.542,0,0,0-.372.164L12.779,10.26a1.082,1.082,0,1,0,.767.765L15.23,9.341a.542.542,0,0,0-.394-.93Z" transform="translate(-5.5 -2.5)" fill="#fff" stroke="#fff" stroke-width="1"/>
</svg>
