<svg xmlns="http://www.w3.org/2000/svg" xmlns:xlink="http://www.w3.org/1999/xlink" width="297" height="7.653" viewBox="0 0 297 7.653">
  <defs>
    <clipPath id="clip-path">
      <rect id="Rectangle_821" data-name="Rectangle 821" width="297" height="7.653" fill="#b8e8f2"/>
    </clipPath>
  </defs>
  <g id="Group_2465" data-name="Group 2465" transform="translate(-535 -2626.958)">
    <g id="Group_2464" data-name="Group 2464" transform="translate(535 2626.958)">
      <g id="Group_2463" data-name="Group 2463" transform="translate(0 0)" clip-path="url(#clip-path)">
        <path id="Path_2738" data-name="Path 2738" d="M269.183.308a.779.779,0,0,0,.673-.13l.024.016c.251.171.461-.071.554-.028a1.046,1.046,0,0,0,.928.008c.1-.035.543.162.858.193l.233.023a4.45,4.45,0,0,1,.969-.061c.237.021,1.207.118,1.635.167l.336-.154a.518.518,0,0,1,.219-.01,7.374,7.374,0,0,0,1.2.207l.323,0c.31-.118.528-.03.485.2l.622-.265.519-.22a5.175,5.175,0,0,0,1.547.078c.342-.06,1.366.226,1.732.211s1.593.191,1.961.232l-.025-.243a.7.7,0,0,1,.266-.044l.474.168a4.181,4.181,0,0,1,1.432.071c.211.091.956-.1,1.144-.057a3.813,3.813,0,0,0,1.14.047,21.041,21.041,0,0,1,2.379-.031l.667.152a6.149,6.149,0,0,0,.969-.119L292.7.7a2.262,2.262,0,0,0,.743,0l.014.006.613.267c.73-.142,1.415-.113,1.522.064a1.987,1.987,0,0,0,.837.587,1.527,1.527,0,0,1,.572.044c.026.048-.151.234-.39.3s-.265.633-.65.927l.13.365.029.084c-.014.131-.106.206-.205.167a.561.561,0,0,0-.456.048h.006c.667.147-.123.393.195.562a.055.055,0,0,1,0,.1l-.506.245c-.022.186-.568.391-1.213.455l-.573-.238-.094-.039a7.945,7.945,0,0,1-1.34.164c-.363.006-1.587-.046-1.925-.007l-.312,0-.308,0c-.328-.032-.714-.061-.858-.062a8.513,8.513,0,0,0-.856.008c-.173.028-1.335.051-2.182.048S282,4.8,281.514,4.765a17.464,17.464,0,0,0-1.905.191l-.106,0-.641.026a10.685,10.685,0,0,0-1.834-.033c-.319.046-1.357-.095-1.623-.075a13.268,13.268,0,0,1-1.527.02c-.317-.039-1.869.049-2.62.061h-2.765a5.315,5.315,0,0,1-1.227-.015c-.314-.205-.732.084-.967-.1a1.224,1.224,0,0,0-.44-.024,4.688,4.688,0,0,1-.924.09l-.461-.187a2.259,2.259,0,0,1-1.043.151c-.233-.05-.744-.079-1.02-.123s-1.12.13-1.358.059a6.626,6.626,0,0,0-1.34.194c-.264.027-1.259-.2-1.753-.245l-.527.176-.375.124c-.736-.059-1.463-.136-1.618-.174s-.854-.087-1.23-.12a17.464,17.464,0,0,0-2.488.411l-.466-.353a1.026,1.026,0,0,0-.45,0c-.508.219-1.091-.15-1.612.053a2.047,2.047,0,0,1-.712.077c-.441-.024-.87-.122-1.306-.125l-.38,0a7.015,7.015,0,0,1-1.183.088c-.237-.015-1.089-.025-1.291-.076a5.56,5.56,0,0,0-1.243.2c-.261.053-.954-.17-1.2-.115a12.238,12.238,0,0,1-1.833-.026h-.414c-.4,0-.805.067-1.206.063l-.746-.007c-.816-.052-2.136-.088-2.937-.079l-.671.1-.588.089a22.32,22.32,0,0,0-2.345-.1h-6.38c-.639,0-1.278-.01-1.915,0l-.4.009c-.434.051-.852.1-.93.107s-.672-.034-1.155-.078-3.186.064-3.38.03-.731-.024-.93-.039-1.184.1-1.694.109H206.06c-.525,0-2.083.026-3.464.049s-5.446.18-5.969.279l-.156-.062-.4-.16a2.375,2.375,0,0,1-1.2-.008l-.49.169a5.475,5.475,0,0,1-1.247.017h-.691c-.759-.005-1.643.024-1.966.065a7.639,7.639,0,0,1-1.814-.225l-.244.169-.354.246a2.783,2.783,0,0,0-1.212-.2c-.387.029-1.654.072-1.955.061s-1.488.09-2.037.047l-.5-.02-.528-.021c-.586.011-1.318.054-1.626.1s-1.21.071-1.689.174l-.559-.1a10.436,10.436,0,0,0-1.581-.016h-.532a9.756,9.756,0,0,0-1.614.131h-.549a21.923,21.923,0,0,0-2.844-.088,40.482,40.482,0,0,0-4.972.351l-.38-.207a6.61,6.61,0,0,0-.92.091l-.314.018a4.546,4.546,0,0,1-1.186-.192,10.381,10.381,0,0,0-1.75.172c-.349,0-1.559,0-1.91,0s-1.6.045-2.007.089h-.365c-.343,0-.692-.087-1.03-.078l-.659.017c-.722-.014-1.825-.019-2.455-.011s-2.5.153-2.888.111l-.353-.009-.512-.014a11.039,11.039,0,0,1-1.53,0c-.284-.035-1.249.178-1.628.2s-1.779,0-2.218,0-2.335,0-3.246.039-4.083.084-5.019.09-3.559.025-3.753.078a8.612,8.612,0,0,1-1.31-.1c-.252-.018-1.178.169-1.622.183s-2.242-.006-2.975,0-3.228,0-3.933.038-3.724.077-5.127.077h-2.605c-1.462,0-2.976,0-3.362.007l-.288.131c-.272.124-.512-.274-.89-.025l-.077.05a4.783,4.783,0,0,0-1.1.037c-.262.051-1.258-.136-1.853-.064h-.545l-4.148.01c-4.563,0-8.769-.05-9.35-.113l-.444.217-.068.033L91.1,6.871a8.449,8.449,0,0,0-1.421.032c-.117.049-.627-.063-.767-.033a8.131,8.131,0,0,1-1.139.037l-.3-.019-1.447.046-.316,0a1.9,1.9,0,0,1-.758-.1,7.035,7.035,0,0,0-1.026.066l-.284-.016c-.139-.008-.318-.093-.393-.075l-1.088.266C80.9,7,78.812,6.94,77.525,6.943H73.432c-.753.011-1.665-.006-2.025-.037a17.467,17.467,0,0,0-2.215.359l-.375-.293a.948.948,0,0,0-.431-.023l-.533.166a14.675,14.675,0,0,0-2.2-.059l-.554.023c-.633.026-1.276.006-1.913.006H55.268c-.643,0-1.566-.026-2.05-.065s-1.865.165-2.04.131-1.259-.075-2.011-.1-2.933.15-3.2.144a9.279,9.279,0,0,1-1.285-.075,7.822,7.822,0,0,0-1.317.116c-.251.018-1.078-.121-1.4-.078s-1.441.075-1.745.1-1.3-.12-1.529-.094-1.325.053-1.91.051-2.967-.031-3.994-.084l-.878.229-.158.042c-.251-.024-.877-.037-1.392-.029l-.328-.089-.539-.147a4.4,4.4,0,0,1-1.345.153l-.395.062-.424.067A13.467,13.467,0,0,0,25.9,7.405c-.235.022-1.945-.182-3.4-.231l-1.215.316L20.85,7.6c-.485-.053-1.144-.095-1.464-.092s-1.425.007-1.74.019-1.058-.067-1.188-.042-.864.03-1.273.026-1.764-.017-2.1-.034-1.343.028-1.628-.015-.938.155-1.021.117A1.214,1.214,0,0,0,9.86,7.5a5.238,5.238,0,0,1-1.113.151H8.428c-.586,0-1.171,0-1.755,0H6.35a1.013,1.013,0,0,0-.371-.207c-.059,0-.228.049-.246.111a5.446,5.446,0,0,1-1.4.02l-.507,0H3.432a2.821,2.821,0,0,1-.685-.036c.086-.014.256-.127.124-.212a.526.526,0,0,1-.152-.506c.06-.1.106-.415-.084-.415s-.617.033-.579.074.054.152-.041.167a1.624,1.624,0,0,1-.56-.136C1.284,6.436.448,6.281.284,6.2S-.18,5.77.146,5.731s.7.409.918.5h.27A.489.489,0,0,0,1.607,6.1l.032-.028a.357.357,0,0,0-.262-.066c-.083.015-.349.012-.349-.051a.838.838,0,0,1,.6-.318,4.583,4.583,0,0,0,1.269-.321c0-.086.116-.353.257-.258a1.356,1.356,0,0,0,.929.135l.077-.109c.1-.144.167-.112.382-.044l.15.047c.236.005.868.012,1.4.015a7.239,7.239,0,0,0,1.7-.257c-.118-.025.284-.187,1.153-.3l.937.188a3.916,3.916,0,0,0,.559.082l.137.008c.233-.035.31-.134.171-.219s-.369-.331-.205-.355l.137.01a3.78,3.78,0,0,0,.452.08l.533-.14a3.349,3.349,0,0,0,.829.316c.129.009.652-.006.527-.068s0-.21.264-.319a6.01,6.01,0,0,1,1.418-.12c.18.01.916-.012,1.182.005s1.06-.014,1.429.041,1.109-.309,1.31-.3A1.909,1.909,0,0,1,19.235,4a.294.294,0,0,0,.244.011V3.97l.009-.388a17.23,17.23,0,0,1,1.842.275l.5-.131.45-.118a14.824,14.824,0,0,0,1.593-.165,6.252,6.252,0,0,1,.99.155l.038-.035.068-.064a3.881,3.881,0,0,1,.832.04h.295l.431,0c.455-.053.981-.111,1.167-.13s1.01-.04,1.365-.061,1.6-.061,1.975-.031,1.6-.175,1.965-.193,1.441.08,1.612.021.852.06,1.02,0,.744.058.848.012a1.277,1.277,0,0,1,.608-.077,2.387,2.387,0,0,0,.819.122,12.569,12.569,0,0,1,1.385-.044c.335.015,1.337-.042,1.586-.03A9.319,9.319,0,0,0,42.1,3.044c.184-.038.934-.087,1.278-.123a9.156,9.156,0,0,1,1.581.254c.218.037.477-.265.6-.292l.064.015.5.119c.506-.088.963-.172,1.019-.187l.035.006a3.533,3.533,0,0,0,.816.124l.27-.034a2.036,2.036,0,0,0,.684-.036,4.335,4.335,0,0,1,1.116.053l.285.028.193.019c.225-.022.661-.051.971-.064a9.047,9.047,0,0,1,1.817.112l.473-.189c.269-.107.822.07,1.178-.1.033-.016.286.068.448.088l.706.089a11.1,11.1,0,0,0,1.742-.2c.177-.064.819.05.962-.025s.7.116.795.133.516.032.834.066,1.5-.12,2.068-.149l.415.189L63,2.959a1.216,1.216,0,0,0,.58-.1,2.73,2.73,0,0,1,.767-.154c.241-.019,1.405.03,2.033.093l.5-.233c.127-.059.549.028.769-.017l.494-.1a8.541,8.541,0,0,0,1.089.216c.174.01.823-.061,1.059-.018l.213.053c.275.069.4-.27.756-.049.033.021.394-.086.6-.088l.3,0c.322.04.678.088.792.106s.816-.028,1.24-.013,1.535-.208,1.649-.182.685.172.984.284l.295-.218.449-.332c.658.14,1.5.286,1.87.327a11.474,11.474,0,0,0,1.9-.181c.288-.058,1.076-.061,1.361-.1l.185.06.206.067a.915.915,0,0,0,.739,0L84.03,2.3l.033-.014a1.062,1.062,0,0,1,.457.056,1.973,1.973,0,0,0,.792.09A9.3,9.3,0,0,1,86.9,2.4c.238.032.8.013,1.032.041s.75-.041.943-.033a6.418,6.418,0,0,0,1.132-.1,13.509,13.509,0,0,1,1.778.169l.317-.207a1.057,1.057,0,0,1,.309,0l.648.046a8.1,8.1,0,0,0,1.895-.073,18.187,18.187,0,0,1,1.985.144l.337-.041.314-.038c.348-.006.916-.044,1.261-.084a7.165,7.165,0,0,1,1.379.2l.08-.016.935-.187c1.082.026,2.188.046,2.459.042a7.992,7.992,0,0,1,1.708.178l.368-.294.163-.129A4.426,4.426,0,0,1,107,2.263a3.972,3.972,0,0,0,1-.138,8.734,8.734,0,0,1,.95.141l.084-.033.442-.178a10.808,10.808,0,0,0,1.344.235,7.578,7.578,0,0,0,1.385-.136,9.5,9.5,0,0,1,1.056.039,3.73,3.73,0,0,0,.634-.175c.123-.06.6.035.71-.035l.358.08.395.088c.591-.051,1.382-.128,1.758-.171s1.372.071,1.541.053a8.008,8.008,0,0,1,1.167.073l.291.012.1,0c.164-.087.329-.089.368,0a.643.643,0,0,0,.581.225c.232-.066.966-.251,1.155-.295a15.356,15.356,0,0,1,1.755-.027c.235.024,1-.151,1.289-.165a12.718,12.718,0,0,1,1.542.055c.253.046,1.536-.018,2.2-.024l.409-.116.367-.1c.231.084.513.191.625.236a9.379,9.379,0,0,0,1.618-.114,16.265,16.265,0,0,1,2.288-.018,8.735,8.735,0,0,0,1.3.012c.3-.028,1.337-.068,1.645-.055a8.761,8.761,0,0,0,1.3-.137,2.562,2.562,0,0,1,.7.115l.041-.006a7.028,7.028,0,0,1,.828-.132c.249-.01.529.088.768.069l.363-.029c.409-.017.957-.055,1.22-.084s.871.117.929.055l.083-.044.061-.033a6.271,6.271,0,0,1,.934.041c.4.04,2.194-.07,2.5-.034l.244.055.307.07a2.525,2.525,0,0,1,.975-.05l.205-.033.362-.057a2.733,2.733,0,0,1,1.027-.14,6.47,6.47,0,0,0,1.247-.019c.259-.043.788-.032,1-.051a6.826,6.826,0,0,1,1.008.062c.19.028.742-.032.816.013a2.131,2.131,0,0,0,.869.075c.328-.048,2.258-.024,2.923-.037s1.905-.192,2.16-.225l.331.041.637.078c.758-.009,1.612-.015,1.9-.014l.285-.057.369-.074a12.8,12.8,0,0,1,1.32.046c.239.03,1.072-.032,1.279-.012l.193.021.18.019c.192.016.849,0,1.462-.037l.546-.044L169.2,1.1c.518-.033.979-.062,1.023-.063s.363.037.646.063,1.2.054,1.432.091a3.306,3.306,0,0,0,.909.1,1.933,1.933,0,0,1,.661-.144c.171,0,.8-.156,1.158-.165s1.778-.023,2.341-.036,2.273.063,2.53.088,1.008-.135,1.18-.106.5.024.61.042S182.625.9,183.3.824l.626.033.459.025a4.092,4.092,0,0,1,1.338-.051l.335.012.34.012a2.768,2.768,0,0,1,1.129.05,13.107,13.107,0,0,0,1.891-.279l.475.164a.6.6,0,0,0,.27-.048l.084-.048a.832.832,0,0,1,.435-.182,6.893,6.893,0,0,1,1.1.14c.246.035,1.168.016,1.408.049a6.249,6.249,0,0,0,.938-.032c.182-.013,1,.039,1.337.07s1.515-.1,1.9-.062l.15-.06c.48-.193.645.138.943.084l.31-.056a4.742,4.742,0,0,1,1.014-.253,14.593,14.593,0,0,1,1.5.057A9.81,9.81,0,0,0,202.69.422a6.8,6.8,0,0,1,1.364.089,9.678,9.678,0,0,0,1.616-.05l.494.093a1.591,1.591,0,0,0,1.114-.145l1.015-.081a11.085,11.085,0,0,0,3.193.026c.4-.048.769.258,1.168-.033A4.3,4.3,0,0,1,213.86.29l.232.008a2.125,2.125,0,0,0,.658.063c.113-.023.416-.089.651-.163s.879.184,1.1.17.758-.133.864-.146a4.152,4.152,0,0,1,.828.189h.22a5.149,5.149,0,0,0,.67-.126l.384-.053c.4.069.825.138.942.154a1.993,1.993,0,0,0,.555-.079,7.474,7.474,0,0,1,.77.041l.094-.03c.127-.041.239-.144.34-.14.272.012.54.1.8.1.335-.01.652-.107.988-.126l.3-.017A4.165,4.165,0,0,0,225.3.092l.259.1.17.064c.286.01.856.035,1.265.055S228.649.2,228.918.259s1.767-.028,2.72.073l.89-.182a2.65,2.65,0,0,1,.937,0l.434.1A11.4,11.4,0,0,0,235.093.01h.22a2.785,2.785,0,0,1,.656.14l.123.032a12.128,12.128,0,0,0,1.614.135,27.5,27.5,0,0,0,2.773-.275c.05.012.145.069.21.095A7.7,7.7,0,0,0,241.708.1c.352-.027,1.547-.078,1.869-.06s1.384.192,1.652.253,1.121-.088,1.329-.012A6.647,6.647,0,0,0,248.149,0l.486.209.21.091c.637-.084,1.638-.16,2.222-.168l.531.014.551.014a5.218,5.218,0,0,0,1.775-.1l.509.194c.395.151.854-.279,1.384-.071a1.458,1.458,0,0,0,1.212-.037.387.387,0,0,1,.154,0l.362.071c.4.024.852.062,1.008.086s.869-.112,1.212-.152l.294.006.608.014c.667-.006,1.783-.021,2.479-.034l.638.01.4.007c.434.055.969.115,1.188.133A5.942,5.942,0,0,0,266.3.191a6.349,6.349,0,0,1,.876.11L267.2.281l.327-.266c.378.144,1.478.219,1.652.293" transform="translate(0 0)" fill="#b8e8f2"/>
      </g>
    </g>
  </g>
</svg>
