<svg xmlns="http://www.w3.org/2000/svg" xmlns:xlink="http://www.w3.org/1999/xlink" width="360" height="138.599" viewBox="0 0 360 138.599">
  <defs>
    <linearGradient id="linear-gradient" x1="0.5" x2="0.5" y2="1" gradientUnits="objectBoundingBox">
      <stop offset="0" stop-color="#dff2f6"/>
      <stop offset="1" stop-color="#fff"/>
    </linearGradient>
    <clipPath id="clip-path">
      <rect id="Rectangle_329" data-name="Rectangle 329" width="360" height="73.863" fill="url(#linear-gradient)"/>
    </clipPath>
    <clipPath id="clip-path-2">
      <rect id="Rectangle_322" data-name="Rectangle 322" width="112.533" height="138.599" fill="none"/>
    </clipPath>
    <clipPath id="clip-path-4">
      <rect id="Rectangle_320" data-name="Rectangle 320" width="10.432" height="14.374" fill="none"/>
    </clipPath>
  </defs>
  <g id="Group_1108" data-name="Group 1108" transform="translate(0 -621.401)">
    <g id="Group_418" data-name="Group 418" transform="translate(0 686.137)">
      <g id="Group_417" data-name="Group 417" clip-path="url(#clip-path)">
        <path id="Path_1063" data-name="Path 1063" d="M360,0V73.863H0V3.457a12.966,12.966,0,0,1,1.448-.349,12.764,12.764,0,0,1,9.7,2.17,12.821,12.821,0,0,1,16.842,5.91A12.5,12.5,0,0,1,40.373,26.3c-.033.157-.07.311-.11.466a10.4,10.4,0,0,1,6.829,7.425h.014A7.019,7.019,0,0,1,55.96,32a14.03,14.03,0,0,1,21,6.25A13.132,13.132,0,0,1,87.925,37a10.636,10.636,0,0,1,14.224,14.33,20.558,20.558,0,0,1,6.536,5.939,11.279,11.279,0,0,1,8.96-.937c.179.056.354.115.527.18a8.742,8.742,0,0,1,11.45-7.5,7.572,7.572,0,0,1,13.225-1.595,7.669,7.669,0,0,1,13.14,5.531,32.3,32.3,0,0,1,8.652,2.284,14.866,14.866,0,0,1,14.579-3.494,9.137,9.137,0,0,1,15.091-3.678,7.68,7.68,0,0,1,8.415,2.009,7.429,7.429,0,0,1,5.887,6.314,7.587,7.587,0,0,1,.063,1.142,7.418,7.418,0,0,1,4.648,3.558,6.839,6.839,0,0,1,10.6-.965,7.335,7.335,0,0,1,4.634-3.595A9.313,9.313,0,0,1,241.49,44.689a10.1,10.1,0,0,1,18.608-.081,10.619,10.619,0,0,1,1.525-.34c.215-.032.427-.054.641-.073a5.522,5.522,0,0,1,6.5.789,7.407,7.407,0,0,1,14.621-.573c.027.135.049.269.067.4a35.522,35.522,0,0,1,9.9-2.865,11.386,11.386,0,0,1,.164-1.69,11.155,11.155,0,0,1,22.084.734q.938-.288,1.893-.523a7.044,7.044,0,0,1,7.1-6.226c.108,0,.216.007.324.012a9.168,9.168,0,0,1,4.317-4.411,7.859,7.859,0,0,1,10.317-8.391A12.566,12.566,0,0,1,349,11.961a12.725,12.725,0,0,1,1.976-.294c-.029-.349-.042-.7-.037-1.062A10.928,10.928,0,0,1,360,0" fill="url(#linear-gradient)"/>
      </g>
    </g>
    <g id="Group_409" data-name="Group 409" transform="translate(224.467 621.401)">
      <g id="Group_408" data-name="Group 408" clip-path="url(#clip-path-2)">
        <g id="Group_407" data-name="Group 407">
          <g id="Group_406" data-name="Group 406" clip-path="url(#clip-path-2)">
            <path id="Path_384" data-name="Path 384" d="M70.2,173.189a4.531,4.531,0,0,1-.239-2.408q1.463-17.626,3.45-35.2a13.944,13.944,0,0,0,.095-3.617c-.108-.721-.329-1.425-.369-2.153a8.684,8.684,0,0,1,.306-2.353L80.8,94.685c1.368-6.1,2.734-12.036,4.34-18.073a71.507,71.507,0,0,1,7.1-17.226,1.9,1.9,0,0,1,.632-.752,1.685,1.685,0,0,1,.9-.161c2.525.071,4.767,1.525,6.945,2.8a62.045,62.045,0,0,0,11.438,5.4,145.318,145.318,0,0,0-1.472,29.753c3.185,1.717,6.49,3.541,8.54,6.522,2.339,3.4,2.666,7.732,3.466,11.781,1.126,5.7,3.326,11.228,3.618,17.035a9.366,9.366,0,0,1-.822,4.958,8.68,8.68,0,0,1-4.538,3.593c-1.824.741-3.763,1.178-5.565,1.969-1.519.666-1.157,2.878-1.13,4.536.041,2.47.288,4.932.535,7.39q.962,9.579,1.925,19.159c.015.149,0,.343-.138.392s-.174-.275-.045-.2" transform="translate(-40.768 -35.906)" fill="#fff"/>
            <path id="Path_385" data-name="Path 385" d="M95.513,25.935A42.824,42.824,0,0,0,88.119,23.1C92.39,15.225,98.636,8.631,104.857,2.184a2.514,2.514,0,0,1,.906-.689,2.3,2.3,0,0,1,1.384.071,13,13,0,0,1,6.969,4.892,1.979,1.979,0,0,1,.483,1.219,2.394,2.394,0,0,1-.4,1,19.633,19.633,0,0,0-1.568,4.014c-.455,1.475-1.069,2.951-1.524,4.427-.464,1.5-.928,3.009-1.359,4.523-.567,1.99-.919,4-1.372,6.014a17.927,17.927,0,0,1-.638,3.043c-.443,1.017-.673.767-1.793.394-3.7-1.233-6.955-3.438-10.427-5.153" transform="translate(-36.074 -0.869)" fill="#fff"/>
            <path id="Path_386" data-name="Path 386" d="M169.555,195.848c.075,1.475,1.31,2.2,2.6,2.923.157.089.176.642.175.823a2.13,2.13,0,0,1-.3.607,7.719,7.719,0,0,1-1.406,1.385,1.547,1.547,0,0,0-.663.826,1.444,1.444,0,0,0,.046.57q1.029,4.737,1.877,9.511a.976.976,0,0,1,0,.5,1,1,0,0,1-.423.435,28.312,28.312,0,0,0-3.329,2.637l-2.063-2.106a1.555,1.555,0,0,1-.442-2.022,48.279,48.279,0,0,1,3.62-8.989.754.754,0,0,0,.134-.385.681.681,0,0,0-.157-.358c-.705-.976-1.889-1.752-1.956-2.954a3.6,3.6,0,0,1,.794-2.067,5.615,5.615,0,0,1,1.3-1.552c.49.416.521,1.149.793,1.732a2.175,2.175,0,0,0,1.292,1.136" transform="translate(-123.639 -120.135)" fill="#f3806e"/>
            <path id="Path_387" data-name="Path 387" d="M222.9,277.663c-1.868-2.148-3.8-4.347-6.321-5.666a4.719,4.719,0,0,0-2.035-.626,2.2,2.2,0,0,0-1.875.854,2.323,2.323,0,0,0,.146,2.518,6.829,6.829,0,0,0,1.986,1.766l1.731,1.174a7.922,7.922,0,0,1-6.627-.758,5.508,5.508,0,0,1-1.607-1.451,6.1,6.1,0,0,1-.958-3.623c.049-4.268,2.72-8.165,6.126-10.736a27.707,27.707,0,0,1,5.522-3.151,29.15,29.15,0,0,1,5.927-2.218c.386,1.446-.387,3.908-.558,5.441q-.307,2.74-.571,5.485t-.485,5.493q-.111,1.374-.21,2.749c-.03.419-.435,2.468-.189,2.751" transform="translate(-192.506 -157.047)" fill="#f3806e"/>
            <path id="Path_388" data-name="Path 388" d="M166.582,195.348a16.522,16.522,0,0,0-1.179,1.563q-.272.411-.521.837c-.157.269-.357.492-.222.8a7.2,7.2,0,0,0,2.214,2.764l-.649.084a13.067,13.067,0,0,0,1.948-1.779,4.807,4.807,0,0,0,.349-.47c.061-.093.119-.188.174-.285a1.629,1.629,0,0,1,.134-.268q.163.138.052.071a.974.974,0,0,0-.12-.057,2.392,2.392,0,0,1-.254-.151,4.224,4.224,0,0,0-.508-.338c-.617-.308-.075-1.231.541-.925.245.122.44.316.678.448a1.343,1.343,0,0,1,.564.429c.344.548-.057,1.2-.366,1.664a11,11,0,0,1-2.433,2.42.55.55,0,0,1-.649.084,7.936,7.936,0,0,1-2.739-3.478c-.272-.78.349-1.558.75-2.182a18.516,18.516,0,0,1,1.481-1.986c.447-.526,1.2.235.757.757" transform="translate(-120.488 -119.385)" fill="#f3806e"/>
            <path id="Path_389" data-name="Path 389" d="M212.13,79.523l-10.141-9.878a1.319,1.319,0,0,1-1.121.584c-1.087-2.455.641-5.219.645-7.9a.894.894,0,0,0-.135-.561c-.35-.445-1.042,0-1.4.438l-2.6,3.152c-3.218-2.906-6.531-5.873-10.568-7.456-.773-.3-1.9-.416-2.207.354a1.7,1.7,0,0,0,.326,1.425,116.531,116.531,0,0,0,10.455,15.014,1.126,1.126,0,0,1,.325.639c.015.489-.562.761-.793,1.192-.411.763.351,1.6.944,2.227a15.827,15.827,0,0,1,2.028,2.958,106.263,106.263,0,0,0,9.275,13.985,42.011,42.011,0,0,0,12.7,10.82c.3.158.681.306.955.107a.933.933,0,0,0,.288-.549l2.953-11.242a36.1,36.1,0,0,0,.98-4.5c.115-.886.25-1.115-.482-1.541-.611-.356-1.335-.573-1.967-.9a33.938,33.938,0,0,1-6.9-5c-1.214-1.09-2.386-2.227-3.555-3.366" transform="translate(-183.81 -35.413)" fill="#fff"/>
            <path id="Path_390" data-name="Path 390" d="M255.766,59.452c-.337-.293-.884-.576-1.173-.236-.229.27-.051.678.133.981A178.226,178.226,0,0,0,265.655,76.11c-.051-.069,1.769-1.942,1.93-2.132.77-.908.89-1.108.193-2.086a48.385,48.385,0,0,0-3.736-4.345,100.149,100.149,0,0,0-8.277-8.095" transform="translate(-253.916 -36.268)" fill="#ffdc76"/>
            <path id="Path_391" data-name="Path 391" d="M93.109,44.919c-1.822,7.277-3.1,14.771-2.633,22.258a11.6,11.6,0,0,0,.453,2.874,13.2,13.2,0,0,0,2.654,4.171,1.766,1.766,0,0,0,.693.588,1.64,1.64,0,0,0,.984-.043c2.911-.788,5.352-2.726,7.7-4.617a8.3,8.3,0,0,0,2.362-2.522c.77-1.511.871-5.52.822-7.216-.328-11.194-.049-14.748,2.194-22.916a186.364,186.364,0,0,1,8.833-23.806c1.2-2.807.419-7.8-3.739-7.408-3.095.294-5.489,4.837-7.016,7.111a89.447,89.447,0,0,0-9.8,19.859c-1.365,3.826-2.52,7.725-3.507,11.665" transform="translate(-40.031 -3.844)" fill="#ffdc76"/>
            <path id="Path_392" data-name="Path 392" d="M159.538,215.883h2.186l.326-5.106h-2.838Z" transform="translate(-110.96 -129.434)" fill="#6f69ae"/>
            <path id="Path_393" data-name="Path 393" d="M156.4,184.1h4.244l.624-16.764h-5.492Z" transform="translate(-108.848 -102.758)" fill="#6f69ae"/>
            <path id="Path_394" data-name="Path 394" d="M156.3,181.492l-.017-.447h5.1l-.017.447Z" transform="translate(-109.161 -111.176)" fill="#6f69ae"/>
            <path id="Path_395" data-name="Path 395" d="M151.34,151.547a4.4,4.4,0,1,0,4.4-4.4,4.4,4.4,0,0,0-4.4,4.4" transform="translate(-106.012 -90.36)" fill="#6f69ae"/>
            <path id="Path_396" data-name="Path 396" d="M146.568,182.842a3.35,3.35,0,0,0,1.832,2.4,11.973,11.973,0,0,0,1.814.413,8.073,8.073,0,0,1,3.1,1.94c.2.159-.212-.145,0,0a8.727,8.727,0,0,0,.459-1.932,15.076,15.076,0,0,1,.772-2.167,7.84,7.84,0,0,1,2.317-3.391c-.294-.156.273.193,0,0a8.15,8.15,0,0,1-2.751-3.328,6.894,6.894,0,0,0-.789-1.559,2.949,2.949,0,0,0-3.1-.868,4.509,4.509,0,0,0-2.542,2.147,8.212,8.212,0,0,0-.829,2.179c-.088.347-.159.7-.223,1.049a7.877,7.877,0,0,0-.069,3.116" transform="translate(-100.921 -106.989)" fill="#fff"/>
            <path id="Path_397" data-name="Path 397" d="M146.981,117.519s.959,5.494,6.536,2.052c2.53-1.721,2.53-6.222,2.53-6.222s-5.847,4.48-9.066,4.17" transform="translate(-100.236 -69.605)" fill="#f3806e"/>
            <path id="Path_398" data-name="Path 398" d="M146.981,117.519s.959,5.494,6.536,2.052c2.53-1.721,2.53-6.222,2.53-6.222S150.2,117.829,146.981,117.519Z" transform="translate(-100.236 -69.605)" fill="none" stroke="#f3806e" stroke-width="0.555"/>
            <g id="Group_405" data-name="Group 405" transform="translate(69.774 60.687)" opacity="0.25">
              <g id="Group_404" data-name="Group 404">
                <g id="Group_403" data-name="Group 403" clip-path="url(#clip-path-4)">
                  <path id="Path_399" data-name="Path 399" d="M83.768,157.253c.161.09,5.258,3.005,5.324,3.532s.265,2.179,1.39,2.708c1.091.514,3.564,7.686,3.717,8.133-.434-1.715-.879-3.429-1.308-5.139a9.388,9.388,0,0,0-1.641-3.894,7.185,7.185,0,0,1-.99-1.21,7.894,7.894,0,0,0-.5-1.072,2.692,2.692,0,0,0-.982-.707c-.379-.191-.757-.384-1.138-.575a35.657,35.657,0,0,0-3.871-1.776" transform="translate(-83.768 -157.253)" fill="#fff"/>
                </g>
              </g>
            </g>
            <path id="Path_400" data-name="Path 400" d="M96.817,16.888a103.912,103.912,0,0,0-6.163,20.393,135.332,135.332,0,0,0-2.387,21.26c-.147,4.007-.14,8.018-.011,12.025.022.69-1.048.689-1.071,0a161.721,161.721,0,0,1,.671-21.644,120.816,120.816,0,0,1,3.995-21.163,100.618,100.618,0,0,1,4.042-11.411c.268-.633,1.191-.087.924.541" transform="translate(-17.941 -9.866)" fill="#f3806e"/>
            <path id="Path_401" data-name="Path 401" d="M140,.942c-6.412,6.21-12.666,12.7-17.155,20.478-4.354,7.546-7.078,15.892-9.178,24.311-1.188,4.761-2.182,9.568-3.168,14.374-.139.675-1.171.389-1.033-.284,1.776-8.655,3.576-17.344,6.5-25.7A79.668,79.668,0,0,1,121.183,22.2a68.064,68.064,0,0,1,7.546-10.953A144.41,144.41,0,0,1,139.244.185c.5-.48,1.253.277.757.757" transform="translate(-69.871 -0.019)" fill="#f3806e"/>
            <path id="Path_402" data-name="Path 402" d="M95.616,7.18a10.258,10.258,0,0,0-8.24-6.105c-.679-.068-.686-1.14,0-1.071a11.308,11.308,0,0,1,9.165,6.636c.27.626-.652,1.172-.925.541" transform="translate(-17.579 0)" fill="#f3806e"/>
            <path id="Path_403" data-name="Path 403" d="M97.286,9.539a12.68,12.68,0,0,0-8.374-6.494c-.672-.154-.387-1.187.285-1.033A13.719,13.719,0,0,1,98.211,9c.316.611-.607,1.154-.925.541" transform="translate(-19.908 -1.226)" fill="#f3806e"/>
            <path id="Path_404" data-name="Path 404" d="M132.843,86.326s2.944-1.218,1.649-3.956-.374,2.319-18.875-5.6c-6.105-2.955-10.964-5.648-10.964-5.648s-.4,7,2.823,8.054,5.517-2.407,5.517-2.407-.857,6.345,4.336,6.709a8.818,8.818,0,0,0,6.357-2.317s6.2,1.753,9.623,1.207c.685,0,1.934,2.433-.466,3.956" transform="translate(-62.669 -43.675)" fill="#f3806e"/>
            <path id="Path_405" data-name="Path 405" d="M132.843,86.326s2.944-1.218,1.649-3.956-.374,2.319-18.875-5.6c-6.105-2.955-10.964-5.648-10.964-5.648s-.4,7,2.823,8.054,5.517-2.407,5.517-2.407-.857,6.345,4.336,6.709a8.818,8.818,0,0,0,6.357-2.317s6.2,1.753,9.623,1.207C133.994,82.37,135.242,84.8,132.843,86.326Z" transform="translate(-62.669 -43.675)" fill="none" stroke="#f3806e" stroke-linecap="round" stroke-linejoin="round" stroke-width="0.555"/>
            <path id="Path_406" data-name="Path 406" d="M148.656,85.287a7.474,7.474,0,0,0,4.6-1.7q-3.155-1.062-7.095-2.749l-.039-.018q-.6-.29-1.181-.576a6.132,6.132,0,0,0,.867,3.867,3.1,3.1,0,0,0,2.4,1.164c.151.01.3.016.455.016m-9.182-4.124c1.712,0,3.011-1.654,3.259-1.993-2.621-1.315-4.817-2.476-6.152-3.194.107,1.931.572,4.57,2.005,5.041a2.843,2.843,0,0,0,.887.146" transform="translate(-93.429 -46.655)" fill="#fff"/>
            <path id="Path_407" data-name="Path 407" d="M260.57,69.563c-1.556-2.866.889-5.659.641-8.577l.157.379c-.257-.269-.358-.37-.634-.125a7.945,7.945,0,0,0-.937,1.042,11.435,11.435,0,0,0-1.5,2.559.541.541,0,0,1-.841.108c-1.724-1.482-3.45-2.969-5.289-4.308a25.642,25.642,0,0,0-5.688-3.315c-.36-.139-1.373-.45-1.446.212-.044.4.412.937.6,1.259q.887,1.528,1.83,3.021,1.839,2.912,3.885,5.687,2.37,3.216,5.008,6.219c.452.517-.3,1.277-.757.758a97.11,97.11,0,0,1-9.342-12.573c-.674-1.081-1.358-2.169-1.962-3.292a2.091,2.091,0,0,1-.32-1.2,1.5,1.5,0,0,1,1.094-1.269c1.139-.335,2.361.4,3.344.9a29.234,29.234,0,0,1,3.189,1.892,73.256,73.256,0,0,1,6.613,5.254l-.841.108a12.045,12.045,0,0,1,2.308-3.519,1.986,1.986,0,0,1,1.211-.775,1.485,1.485,0,0,1,1.342.773,4.029,4.029,0,0,1-.067,2.033,19.994,19.994,0,0,1-.583,2.108c-.4,1.314-.788,2.817-.09,4.1.329.606-.6,1.147-.925.541" transform="translate(-243.968 -34.427)" fill="#f3806e"/>
            <path id="Path_408" data-name="Path 408" d="M142.036,107.75a2.023,2.023,0,0,1,1.171,1.024,3.155,3.155,0,0,1,.276,1.652.535.535,0,1,1-1.071,0,3.9,3.9,0,0,0,0-.651c-.009-.1.015.078,0,.01-.005-.025-.008-.05-.013-.075-.009-.05-.02-.1-.033-.149s-.031-.11-.049-.164a.275.275,0,0,1-.026-.071c0,.034.045.1.007.018a1.755,1.755,0,0,0-.137-.241.549.549,0,0,1-.038-.053.384.384,0,1,1,.023.032c-.032-.037-.064-.073-.1-.108s-.064-.058-.1-.087c-.048-.044.1.067.019.015l-.054-.036a1.284,1.284,0,0,0-.112-.064c-.011-.005-.11-.051-.024-.012s-.014,0-.027-.007a.536.536,0,1,1,.285-1.033" transform="translate(-85.514 -66.153)" fill="#f3806e"/>
            <path id="Path_409" data-name="Path 409" d="M172.989,120.81l-.031.023.108-.084a1.275,1.275,0,0,0-.212.215l.084-.108a1.37,1.37,0,0,0-.161.278l.054-.128a1.4,1.4,0,0,0-.091.328c.007-.047.013-.095.019-.142a1.285,1.285,0,0,0,0,.34l-.019-.142c.005.037.013.075.021.112a.563.563,0,0,1-.054.413.548.548,0,0,1-.32.246.536.536,0,0,1-.659-.374,1.766,1.766,0,0,1,.049-1.012,1.813,1.813,0,0,1,.225-.444,2.1,2.1,0,0,1,.2-.245,2.134,2.134,0,0,1,.245-.2.538.538,0,0,1,.413-.054.536.536,0,0,1,.374.659l-.054.128a.536.536,0,0,1-.192.192" transform="translate(-126.976 -73.575)" fill="#f3806e"/>
            <path id="Path_410" data-name="Path 410" d="M124.625,66.083a45.764,45.764,0,0,1-9.845-4.515c-2.895-1.683-5.913-3.431-9.31-3.778-.679-.069-.686-1.141,0-1.071,3.437.351,6.485,1.975,9.428,3.679,1.522.881,3.034,1.783,4.616,2.555a35.646,35.646,0,0,0,5.4,2.1.536.536,0,0,1-.285,1.033" transform="translate(-53.257 -34.828)" fill="#f3806e"/>
            <path id="Path_411" data-name="Path 411" d="M123.907,62.311c-5.227-1.493-9.408-5.148-14.379-7.205a17.041,17.041,0,0,0-4.322-1.2c-.674-.086-.683-1.159,0-1.071,5.5.706,9.9,4.244,14.691,6.7a23.7,23.7,0,0,0,4.295,1.744.536.536,0,0,1-.285,1.033" transform="translate(-52.441 -32.439)" fill="#f3806e"/>
            <path id="Path_412" data-name="Path 412" d="M104.067,12.22a63.146,63.146,0,0,0-8.7,15.029c-.256.63-1.293.354-1.033-.285a64.954,64.954,0,0,1,8.975-15.5c.424-.543,1.177.22.757.757" transform="translate(-28.047 -6.925)" fill="#f3806e"/>
            <path id="Path_413" data-name="Path 413" d="M119.456,56.024a.536.536,0,0,1,0-1.071.536.536,0,0,1,0,1.071" transform="translate(-53.341 -33.746)" fill="#f3806e"/>
            <path id="Path_414" data-name="Path 414" d="M114.629,31.21a44.611,44.611,0,0,1,4.479-8.041c1.835-2.712,3.755-5.37,5.688-8.014.4-.551,1.332-.017.925.541-1.9,2.6-3.783,5.207-5.589,7.869a43.9,43.9,0,0,0-4.469,7.93c-.257.629-1.294.354-1.033-.285" transform="translate(-57.509 -9.165)" fill="#f3806e"/>
            <path id="Path_415" data-name="Path 415" d="M112.121,12.075V12a.4.4,0,0,1,.046-.206.4.4,0,0,1,.11-.172.6.6,0,0,1,.379-.157l.142.019a.535.535,0,0,1,.236.138l.084.108a.533.533,0,0,1,.073.271v.079a.551.551,0,0,1-.535.536l-.142-.019a.538.538,0,0,1-.237-.138l-.084-.108a.535.535,0,0,1-.073-.27" transform="translate(-43.929 -7.037)" fill="#f3806e"/>
            <path id="Path_416" data-name="Path 416" d="M106.117,99.6q-.068,1.12-.137,2.241a3.347,3.347,0,0,1-.135,1.089.745.745,0,0,1-1.045.439.538.538,0,0,1-.108-.841,2.4,2.4,0,0,0,.293-.281c.009-.01.087-.106.044-.051s.019-.027.025-.036q.058-.083.11-.171c.034-.058.066-.118.1-.179.017-.034.032-.068.047-.1-.019.045-.021.053,0,0a3.137,3.137,0,0,0,.118-.413c.006-.029.01-.059.016-.089.018-.08-.011.128,0-.015.007-.068.012-.135.014-.2s0-.136,0-.2c0-.03,0-.06-.005-.09,0-.015-.016-.14-.005-.063s-.005-.028-.008-.04c-.007-.037-.014-.074-.022-.11q-.023-.1-.053-.2c-.009-.029-.019-.057-.029-.085-.017-.046-.035-.087,0-.019q-.046-.1-.1-.2a.536.536,0,0,1,.733-.733,2.209,2.209,0,0,1,.892,1.837c.033.668-.1,1.534-.861,1.736a.536.536,0,1,1-.285-1.033q.087-.027-.017.014c.05-.031.045-.024-.015.019a.477.477,0,0,0,.053-.055q-.065.086-.017.012c.054-.125-.028.112.013-.022.017-.055.033-.109.045-.165.006-.029.011-.057.015-.085q-.014.107,0,.015c0-.043.005-.086.007-.129q.006-.176-.005-.352c0-.055-.008-.11-.014-.165.014.129-.013-.067-.018-.09a2.272,2.272,0,0,0-.089-.31c.042.118-.027-.052-.04-.075-.022-.039-.046-.075-.071-.112.068.1-.038-.038-.059-.059s-.043-.04-.066-.059c.049.038.049.04,0,0l.733-.732a3.133,3.133,0,0,1-.7,3.843q-.054-.421-.108-.841a.407.407,0,0,0-.444.037c-.04.054-.05.063-.029.028s.014-.024-.013.032a.589.589,0,0,0,.022-.081c-.042.137,0-.027,0-.067,0-.065.008-.13.012-.195l.053-.876.105-1.721a.535.535,0,1,1,1.071,0" transform="translate(-34.659 -60.831)" fill="#f3806e"/>
            <path id="Path_417" data-name="Path 417" d="M183.77,138.648a.536.536,0,0,1,0-1.071.536.536,0,0,1,0,1.071" transform="translate(-142.475 -84.483)" fill="#f3806e"/>
            <path id="Path_418" data-name="Path 418" d="M206.758,108.013c-3.682-1.348-6.818-3.926-9.726-6.49-3.006-2.65-5.8-5.53-8.639-8.352-1.6-1.585-3.209-3.153-4.883-4.656-.514-.462.245-1.217.757-.757,5.809,5.219,10.877,11.28,17.146,15.98a22.329,22.329,0,0,0,5.629,3.243c.642.235.365,1.27-.285,1.033" transform="translate(-165.627 -53.802)" fill="#f3806e"/>
            <path id="Path_419" data-name="Path 419" d="M251.421,88.373a20.083,20.083,0,0,0-7.395,7.348.536.536,0,0,1-.925-.54,21.166,21.166,0,0,1,7.779-7.732.536.536,0,0,1,.541.925" transform="translate(-232.937 -53.655)" fill="#f3806e"/>
            <path id="Path_420" data-name="Path 420" d="M195.2,107.38a21.308,21.308,0,0,1,2.691,2.791,12.658,12.658,0,0,1,1.684,3.449,13.134,13.134,0,0,0,2.116,3.456c.778,1.01,1.528,2.04,2.269,3.076,2.989,4.18,5.879,8.524,9.854,11.85a28.478,28.478,0,0,0,7.635,4.56c.631.254.356,1.291-.285,1.033a31.565,31.565,0,0,1-12.508-9.323c-1.658-1.993-3.158-4.11-4.657-6.223-.77-1.086-1.54-2.172-2.333-3.241a34.8,34.8,0,0,1-2.422-3.333c-.748-1.309-1-2.828-1.816-4.1a16.821,16.821,0,0,0-2.987-3.234c-.51-.466.249-1.221.757-.757" transform="translate(-184.254 -65.85)" fill="#f3806e"/>
            <path id="Path_421" data-name="Path 421" d="M240.532,99.158a50.357,50.357,0,0,0-8.21,8.359c-.422.544-1.175-.219-.757-.757a50.328,50.328,0,0,1,8.21-8.359c.532-.428,1.294.325.757.757" transform="translate(-217.501 -60.348)" fill="#f3806e"/>
            <path id="Path_422" data-name="Path 422" d="M253.679,107.737l0-.01.054.128a.506.506,0,0,0-.056-.1l.084.108a.525.525,0,0,0-.093-.092l.108.084a.6.6,0,0,0-.123-.071l.128.054a.667.667,0,0,0-.159-.042l.142.019a.667.667,0,0,0-.164,0l.142-.019a.578.578,0,0,0-.137.037l.128-.054a.521.521,0,0,0-.1.061l.108-.084a.49.49,0,0,0-.079.08l.084-.108a.464.464,0,0,0-.057.1l.054-.128a.541.541,0,0,0-.032.12l.019-.142a.581.581,0,0,0,0,.146c-.007-.047-.013-.095-.019-.142a.679.679,0,0,0,.045.163l-.054-.128a.674.674,0,0,0,.08.137l-.084-.108a.606.606,0,0,0,.1.1l-.108-.084a.532.532,0,0,0,.107.063l-.128-.054a.48.48,0,0,0,.113.03l-.142-.019a.494.494,0,0,0,.117,0l-.142.019a.544.544,0,0,0,.122-.034l-.128.054a.6.6,0,0,0,.121-.071l-.108.084a.673.673,0,0,0,.117-.118l-.084.108a.663.663,0,0,0,.077-.133l-.054.128a.567.567,0,0,0,.038-.135c-.006.047-.013.095-.019.142a.54.54,0,0,0,0-.127c.006.047.013.095.019.142a.488.488,0,0,0-.026-.1.406.406,0,0,1-.01-.213.4.4,0,0,1,.064-.2.535.535,0,0,1,.732-.192l.108.084a.535.535,0,0,1,.138.236.855.855,0,0,1,.049.315.97.97,0,0,1-.053.313,1.141,1.141,0,0,1-.14.283,1.52,1.52,0,0,1-.138.171,1.473,1.473,0,0,1-.171.139,1.042,1.042,0,0,1-.281.138.508.508,0,0,1-.09.022,1.112,1.112,0,0,1-.224.023,1.061,1.061,0,0,1-.419-.106.978.978,0,0,1-.239-.166,1.132,1.132,0,0,1-.309-.5,1.182,1.182,0,0,1-.049-.3,1.03,1.03,0,0,1,.032-.3.871.871,0,0,1,.049-.133.853.853,0,0,1,.066-.138,1.062,1.062,0,0,1,.29-.3,1.042,1.042,0,0,1,.551-.176,1.152,1.152,0,0,1,.317.032,1.1,1.1,0,0,1,.291.114.949.949,0,0,1,.122.086.908.908,0,0,1,.118.1,1.1,1.1,0,0,1,.227.377.407.407,0,0,1,.01.214.394.394,0,0,1-.064.2.535.535,0,0,1-.732.192l-.108-.084a.535.535,0,0,1-.138-.236" transform="translate(-239.729 -65.548)" fill="#f3806e"/>
            <path id="Path_423" data-name="Path 423" d="M147.55,208.323l0-.01.054.128a.506.506,0,0,0-.056-.1l.084.108a.524.524,0,0,0-.093-.092l.108.084a.6.6,0,0,0-.123-.071l.128.054a.668.668,0,0,0-.159-.042l.142.019a.669.669,0,0,0-.164,0l.142-.019a.58.58,0,0,0-.137.037l.128-.054a.52.52,0,0,0-.1.061l.108-.084a.488.488,0,0,0-.079.08l.084-.108a.466.466,0,0,0-.057.1l.054-.128a.541.541,0,0,0-.032.12c.007-.047.013-.095.019-.142a.579.579,0,0,0,0,.146l-.019-.142a.68.68,0,0,0,.045.163l-.054-.128a.675.675,0,0,0,.08.137l-.084-.108a.605.605,0,0,0,.1.1l-.108-.084a.533.533,0,0,0,.107.063l-.128-.054a.479.479,0,0,0,.113.03l-.142-.019a.493.493,0,0,0,.117,0l-.142.019a.545.545,0,0,0,.122-.034l-.128.054a.6.6,0,0,0,.121-.071l-.108.084a.676.676,0,0,0,.117-.118l-.084.108a.661.661,0,0,0,.077-.133l-.054.128a.565.565,0,0,0,.038-.135l-.019.142a.537.537,0,0,0,0-.127c.006.047.013.095.019.142a.487.487,0,0,0-.026-.1.406.406,0,0,1-.01-.213.4.4,0,0,1,.064-.2.535.535,0,0,1,.732-.192l.108.084a.535.535,0,0,1,.138.236.855.855,0,0,1,.049.315.97.97,0,0,1-.053.313,1.141,1.141,0,0,1-.14.283,1.517,1.517,0,0,1-.138.171,1.472,1.472,0,0,1-.171.139,1.041,1.041,0,0,1-.281.138.509.509,0,0,1-.09.022,1.113,1.113,0,0,1-.224.023,1.061,1.061,0,0,1-.419-.106.977.977,0,0,1-.239-.166,1.132,1.132,0,0,1-.309-.5,1.181,1.181,0,0,1-.049-.3,1.029,1.029,0,0,1,.032-.3.868.868,0,0,1,.049-.133.857.857,0,0,1,.066-.138,1.062,1.062,0,0,1,.29-.3,1.042,1.042,0,0,1,.551-.176,1.152,1.152,0,0,1,.317.032,1.1,1.1,0,0,1,.291.114.948.948,0,0,1,.122.086.909.909,0,0,1,.118.1,1.1,1.1,0,0,1,.227.377.407.407,0,0,1,.01.214.394.394,0,0,1-.064.2.535.535,0,0,1-.732.192l-.108-.084a.535.535,0,0,1-.138-.236" transform="translate(-92.643 -127.316)" fill="#f3806e"/>
            <path id="Path_424" data-name="Path 424" d="M171.956,154.81c.794,3.8,1.813,8.318,5.687,10.13.624.292.081,1.215-.541.925-4.134-1.934-5.329-6.7-6.179-10.771-.14-.673.891-.96,1.033-.285" transform="translate(-131.344 -94.829)" fill="#f3806e"/>
            <path id="Path_425" data-name="Path 425" d="M125.476,157a9.854,9.854,0,0,0-3.765,2.764c-1.138,1.125-2.3,2.225-3.529,3.253a24.477,24.477,0,0,1-8.192,4.776c-.658.21-.94-.824-.285-1.033a23.842,23.842,0,0,0,8.215-4.923c1.207-1.044,2.346-2.157,3.483-3.275a9.671,9.671,0,0,1,3.789-2.6c.66-.205.942.828.285,1.033" transform="translate(-55.511 -95.757)" fill="#f3806e"/>
            <path id="Path_426" data-name="Path 426" d="M177.223,195.775a33.454,33.454,0,0,1-4.364,1.485.536.536,0,0,1-.285-1.033,33.508,33.508,0,0,0,4.364-1.485.538.538,0,0,1,.659.374.549.549,0,0,1-.374.659" transform="translate(-131.538 -119.569)" fill="#f3806e"/>
            <path id="Path_427" data-name="Path 427" d="M185.564,155.151c-1.638,5.487-.293,11.24,1.01,16.646.161.67-.871.956-1.033.284-1.347-5.592-2.7-11.541-1.01-17.215a.536.536,0,0,1,1.033.285" transform="translate(-144.967 -94.869)" fill="#f3806e"/>
            <path id="Path_428" data-name="Path 428" d="M119.226,156.827a16.822,16.822,0,0,0-1.963,3.633c-.561,1.311-1.132,2.608-1.821,3.858a32.611,32.611,0,0,1-5,6.788c-.477.5-1.234-.259-.757-.758a31.5,31.5,0,0,0,4.916-6.718c1.305-2.4,2.04-5.155,3.7-7.343.411-.541,1.342-.008.925.541" transform="translate(-49.069 -95.834)" fill="#f3806e"/>
            <path id="Path_429" data-name="Path 429" d="M199.27,129.192q-2.46-1.367-4.921-2.735a6.951,6.951,0,0,0-1.136-.552,2.422,2.422,0,0,0-1.263-.058c-.705.118-1.715-.178-1.593-1.088a.554.554,0,0,1,.535-.536.538.538,0,0,1,.536.536c-.018.132.821-.052.962-.058a3.06,3.06,0,0,1,1.035.146,11.177,11.177,0,0,1,2.053,1.011l4.333,2.409c.6.335.063,1.26-.541.925" transform="translate(-161 -76.283)" fill="#f3806e"/>
            <path id="Path_430" data-name="Path 430" d="M219.908,133.651a38.239,38.239,0,0,0,5.25,5.966c.93.858,1.96,1.6,2.881,2.469a4.742,4.742,0,0,1,1.061,1.376c.21.44.315,1.066.779,1.31.611.321.07,1.246-.54.925a2.2,2.2,0,0,1-.957-1.2,4.406,4.406,0,0,0-.933-1.492c-.941-.948-2.064-1.723-3.047-2.63a39.54,39.54,0,0,1-5.418-6.182c-.4-.563.528-1.1.925-.541" transform="translate(-202.086 -81.928)" fill="#f3806e"/>
            <path id="Path_431" data-name="Path 431" d="M134.681,196.585a20.667,20.667,0,0,0-3.223,4.344,18.617,18.617,0,0,0-2.036,4.994c-.155.671-1.187.387-1.033-.285a19.646,19.646,0,0,1,2.144-5.25,21.75,21.75,0,0,1,3.39-4.56.536.536,0,0,1,.757.757" transform="translate(-71.845 -120.156)" fill="#f3806e"/>
            <path id="Path_432" data-name="Path 432" d="M158.806,185.539a7.59,7.59,0,0,1-2.475-1.042,4.109,4.109,0,0,1-1.357-2.285,12.227,12.227,0,0,1-.251-2.689,10.159,10.159,0,0,0-1.243,3.89,6.692,6.692,0,0,0,.817,3.963,2.987,2.987,0,0,0,.891,1.01,4.889,4.889,0,0,0,1.561.54,4.712,4.712,0,0,1,3.42,2.427c-.171-.42.189-1.477.28-1.923.138-.68.446-1.366.545-2.045.156-1.064-1.361-1.582-2.188-1.845" transform="translate(-107.692 -110.241)" fill="#ffdc76"/>
            <path id="Path_433" data-name="Path 433" d="M90.885,195.233c5.511,1.449,12.018,3.447,14.138,9.393a42.759,42.759,0,0,1,1.278,5.343c.145.672-.887.959-1.033.285-.608-2.811-.963-5.818-2.866-8.1a15.508,15.508,0,0,0-6.786-4.4c-1.641-.594-3.33-1.039-5.016-1.483a.536.536,0,0,1,.285-1.033" transform="translate(-28.599 -119.876)" fill="#f3806e"/>
            <path id="Path_434" data-name="Path 434" d="M156.031,179.7c-1.746-.558-2.373-2.282-3.2-3.735a3.17,3.17,0,0,0-1.766-1.658,2.89,2.89,0,0,0-2.27.438c-1.588,1-2,3.046-2.107,4.783-.089,1.43-.077,3.334,1.14,4.332.813.667,1.979.636,2.926,1a4.876,4.876,0,0,1,2.337,1.921c.377.58-.55,1.117-.925.541a3.956,3.956,0,0,0-2.535-1.679,5.654,5.654,0,0,1-2.6-1.066c-1.319-1.167-1.5-3.17-1.423-4.816.094-1.923.481-4.1,1.994-5.449a3.837,3.837,0,0,1,4.9-.446,7.279,7.279,0,0,1,1.772,2.532,4.018,4.018,0,0,0,2.049,2.266c.654.209.374,1.243-.285,1.033" transform="translate(-100.337 -106.339)" fill="#f3806e"/>
            <path id="Path_435" data-name="Path 435" d="M195.4,155.635q-2.08,6.907-3.616,13.96-.776,3.57-1.409,7.169c-.4,2.276-.683,4.584-1.25,6.827-.323,1.277-.85,2.481-1.206,3.745a3.829,3.829,0,0,0,.3,3.38c.418.538-.335,1.3-.757.757-1.446-1.864-.72-4.1,0-6.1a40.527,40.527,0,0,0,1.584-7.135q1.232-7.439,3.077-14.759,1.03-4.087,2.248-8.124a.536.536,0,0,1,1.033.285" transform="translate(-154.911 -95.167)" fill="#f3806e"/>
            <path id="Path_436" data-name="Path 436" d="M101.365,163.659c-2.677.611-3.621,3.554-4.319,5.861a.536.536,0,0,1-1.033-.284c.811-2.68,1.989-5.906,5.067-6.609.671-.153.957.879.285,1.033" transform="translate(-26.259 -99.856)" fill="#f3806e"/>
            <path id="Path_437" data-name="Path 437" d="M109.887,183.249a.536.536,0,0,1,0-1.071.536.536,0,0,1,0,1.071" transform="translate(-40.079 -111.872)" fill="#f3806e"/>
            <path id="Path_438" data-name="Path 438" d="M95.961,205.9c-.041-.019-.063-.022-.006-.01-.045-.01-.078,0-.015-.011-.047.005-.072.017-.013,0l.087-.026c.048-.015.046-.02,0,0l.084-.041c.056-.028.109-.059.164-.088a3.079,3.079,0,0,1,.822-.332,1.812,1.812,0,0,1,1.676.487.536.536,0,1,1-.757.758c-.019-.019-.159-.133-.055-.059a1.31,1.31,0,0,0-.147-.092c-.025-.013-.052-.026-.078-.038.061.026.063.029.006.007a.567.567,0,0,0-.168-.042c.071.008.076.009.014,0q-.043,0-.087,0c-.032,0-.064,0-.1,0,.063-.01.063-.01,0,0s-.125.028-.186.047c-.017.005-.168.059-.118.04s-.1.044-.113.052c-.058.029-.116.059-.173.09a4.053,4.053,0,0,1-.418.2,1.154,1.154,0,0,1-.964-.026.539.539,0,0,1-.192-.732.55.55,0,0,1,.733-.192" transform="translate(-23.105 -126.101)" fill="#f3806e"/>
            <path id="Path_439" data-name="Path 439" d="M91.033,155.656c1.493.71,3,1.391,4.479,2.136a7.627,7.627,0,0,1,3,2.625,15.1,15.1,0,0,1,1.637,3.651c.5,1.5.94,3.021,1.365,4.544a122.866,122.866,0,0,1,3.721,19.131c.31,2.73.778,6.295-1.874,8.08a7.423,7.423,0,0,1-3.912.919,8.009,8.009,0,0,1-4.254-.7,11.181,11.181,0,0,1-1.748-1.3l-1.913-1.613-3.9-3.288L79.762,183.2l-3.9-3.288q-.993-.838-1.987-1.675a1.941,1.941,0,0,1-.849-1.621,14.059,14.059,0,0,1,2.952-7.659,15.378,15.378,0,0,1,1.318-1.516.544.544,0,0,1,.758,0A15.616,15.616,0,0,0,83.737,171c.645.23.367,1.265-.285,1.033A16.87,16.87,0,0,1,77.3,168.2h.758a13.9,13.9,0,0,0-3.707,6.789c-.068.3-.125.612-.171.92a2.752,2.752,0,0,0-.075.948c.074.3.381.5.605.686l1.03.869,3.532,2.978,14.57,12.285a6.793,6.793,0,0,0,3.679,1.971,12.05,12.05,0,0,0,4.036-.205,3.5,3.5,0,0,0,2.565-2.354,10.128,10.128,0,0,0,.157-4.331,120.977,120.977,0,0,0-3.288-17.985q-.63-2.409-1.359-4.79a24.289,24.289,0,0,0-1.521-4.129,6.806,6.806,0,0,0-2.911-3.014c-1.534-.811-3.137-1.507-4.7-2.252-.622-.3-.079-1.22.541-.925" transform="translate(-21.128 -95.55)" fill="#f3806e"/>
            <path id="Path_440" data-name="Path 440" d="M170.188,213.078c-1.509,1.851-2.176,4.209-2.927,6.433l-.611,1.808-.306.9a3.786,3.786,0,0,0-.293.879c-.014.388.374.71.609.975q.332.373.676.735.658.692,1.358,1.341h-.417a24.459,24.459,0,0,1,2.76-2.212,5.817,5.817,0,0,0,.724-.477.239.239,0,0,0,.189-.284.492.492,0,0,0,.009-.376c-.012-.154-.056-.31-.083-.461q-.175-.96-.361-1.917c-.494-2.544-1.047-5.075-1.627-7.6-.085-.37.484-.528.569-.157.636,2.766,1.237,5.54,1.767,8.328.128.671.269,1.344.371,2.02.087.58-.237.763-.681,1.049a23.365,23.365,0,0,0-3.218,2.5.3.3,0,0,1-.417,0q-.8-.744-1.544-1.539a6.424,6.424,0,0,1-1.208-1.433c-.246-.53.142-1.212.311-1.713l.733-2.17c.825-2.444,1.543-5.021,3.2-7.055.24-.294.655.125.417.417" transform="translate(-123.923 -130.466)" fill="#f3806e"/>
            <path id="Path_441" data-name="Path 441" d="M195.852,215.929a16.975,16.975,0,0,1,1.554-3.689,9.271,9.271,0,0,0,.911-1.759,7.7,7.7,0,0,0,.261-1.976c.032-.687,1.1-.69,1.071,0a10.22,10.22,0,0,1-.227,2,7.3,7.3,0,0,1-.883,1.916,16.37,16.37,0,0,0-1.654,3.789.536.536,0,0,1-1.033-.285" transform="translate(-162.691 -127.721)" fill="#f3806e"/>
            <path id="Path_442" data-name="Path 442" d="M94.577,253.387l3.055,31.078q.434,4.412.868,8.825c.068.685-1,.681-1.071,0l-3.055-31.078q-.434-4.413-.868-8.825c-.068-.685,1-.681,1.071,0" transform="translate(-22.054 -155.285)" fill="#f3806e"/>
            <path id="Path_443" data-name="Path 443" d="M209.866,247.618Q207.913,264,206.708,280.45q-.342,4.687-.623,9.377c-.041.685-1.113.69-1.071,0q.989-16.464,2.728-32.871.5-4.673,1.053-9.338c.081-.676,1.152-.684,1.071,0" transform="translate(-176.456 -151.744)" fill="#f3806e"/>
            <path id="Path_444" data-name="Path 444" d="M104.435,247a33.989,33.989,0,0,0,7.271,1.451c2.536.279,5.079.514,7.622.722,5.059.413,10.135.678,15.212.647,2.916-.018,5.832-.136,8.739-.373.687-.056.683,1.015,0,1.071-10.308.841-20.673.15-30.936-.927a37.386,37.386,0,0,1-8.192-1.558c-.649-.221-.37-1.256.285-1.033" transform="translate(-71.311 -151.661)" fill="#f3806e"/>
            <path id="Path_445" data-name="Path 445" d="M131.113,76.723a4.447,4.447,0,0,1,5.4,1.792c.348.56.568,1.19.89,1.765a5.373,5.373,0,0,0-1.7-1.261,6.534,6.534,0,0,0-3.631-.062,3.182,3.182,0,0,1-1.028-2.165" transform="translate(-75.444 -46.927)" fill="#f3806e"/>
            <path id="Path_446" data-name="Path 446" d="M130.363,75.683a4.9,4.9,0,0,1,4.2.354,5,5,0,0,1,1.469,1.339,17.145,17.145,0,0,1,1.086,2.053.411.411,0,0,1-.643.5,4.689,4.689,0,0,0-1.724-1.235,5.011,5.011,0,0,0-2.256-.132c-.188.023-.376.052-.563.083a2.009,2.009,0,0,1-.551.073c-.3-.041-.559-.443-.724-.671a3.642,3.642,0,0,1-.659-1.9c-.036-.526.783-.524.819,0a2.826,2.826,0,0,0,.908,1.876l-.4-.105a8.671,8.671,0,0,1,3.163-.145,5.075,5.075,0,0,1,2.564,1.573l-.643.5c-.324-.592-.553-1.236-.917-1.807a4.022,4.022,0,0,0-1.259-1.24,4.114,4.114,0,0,0-3.652-.322c-.494.186-.707-.606-.218-.79" transform="translate(-74.803 -46.283)" fill="#f3806e"/>
            <path id="Path_447" data-name="Path 447" d="M163.08,70.069a3.49,3.49,0,0,0-5.547-1.9,3.044,3.044,0,0,1,2.418.594,4.75,4.75,0,0,1,1.494,2.05.364.364,0,0,0,.14.2.319.319,0,0,0,.211.013,1.934,1.934,0,0,0,1.293-.892" transform="translate(-111.351 -41.407)" fill="#f3806e"/>
            <path id="Path_448" data-name="Path 448" d="M161.993,69.526a3.154,3.154,0,0,0-1.9-2.145,3.189,3.189,0,0,0-3.05.493l-.316-.748a3.64,3.64,0,0,1,3.4,1.238,5.544,5.544,0,0,1,.942,1.512c-.008-.018.083.2.088.2l-.165-.089.079-.016c.127-.059.265-.076.392-.146a1.558,1.558,0,0,0,.577-.543c.281-.444.99-.034.707.413a2.376,2.376,0,0,1-1.459,1.065.713.713,0,0,1-.82-.247c-.162-.25-.251-.558-.4-.82a3.084,3.084,0,0,0-3.123-1.776.412.412,0,0,1-.315-.749,3.943,3.943,0,0,1,3.757-.546,4,4,0,0,1,2.392,2.688.41.41,0,0,1-.79.218" transform="translate(-110.659 -40.755)" fill="#f3806e"/>
            <path id="Path_449" data-name="Path 449" d="M.67,155.145a21.048,21.048,0,0,1,11.336,6.82,36.783,36.783,0,0,1,7.088,12.623c3.42,9.718,4.445,20.5,10.409,29.176a20.552,20.552,0,0,0,5.74,5.9,6.475,6.475,0,0,0,3.747,1.106,4.017,4.017,0,0,0,3.14-1.624.538.538,0,0,1,.979.413,12.755,12.755,0,0,1-9.9,9.323c-3.06.548-6.2-.369-9.239.345a25.05,25.05,0,0,0-4.187,1.584,20.658,20.658,0,0,1-4.236,1.4,26.191,26.191,0,0,1-10.232-.3c-.675-.137-.389-1.169.285-1.033a25.8,25.8,0,0,0,8.8.45,17.84,17.84,0,0,0,4.177-1.159c1.323-.542,2.6-1.184,3.961-1.642a13.1,13.1,0,0,1,4.352-.641c1.479.014,2.955.17,4.434.12a11.361,11.361,0,0,0,6.585-2.393,11.539,11.539,0,0,0,4.167-6.337l.979.413a5.483,5.483,0,0,1-5.895,1.973c-2.469-.609-4.5-2.464-6.167-4.294a37.394,37.394,0,0,1-7.251-12.985c-3.489-9.92-4.445-21.083-10.91-29.732C9.764,160.54,5.5,157.188.385,156.178c-.675-.134-.389-1.166.285-1.033" transform="translate(69.406 -95.264)" fill="#f3806e"/>
            <path id="Path_450" data-name="Path 450" d="M221.042,275.952a16.586,16.586,0,0,0-3.1-3.4,15.7,15.7,0,0,0-1.959-1.38,5.2,5.2,0,0,0-2.261-.858,2.061,2.061,0,0,0-1.73.672,1.5,1.5,0,0,0,.18,1.924,9.313,9.313,0,0,0,3.934,2.623.54.54,0,0,1,0,1.033,9.877,9.877,0,0,1-7.111-.533,6.574,6.574,0,0,1-3.365-6.069,12.56,12.56,0,0,1,2.721-7.159,18.835,18.835,0,0,1,6.338-5.4c2.976-1.549,6.305-2.328,9.15-4.141.583-.371,1.121.555.541.925-2.323,1.48-4.968,2.277-7.482,3.356a18.9,18.9,0,0,0-6.442,4.407,13.677,13.677,0,0,0-3.563,6.385,6.131,6.131,0,0,0,1.757,6.2c1.969,1.6,4.832,1.627,7.172,1v1.033a12.053,12.053,0,0,1-3.937-2.394c-.973-.918-1.72-2.365-.891-3.628a3.238,3.238,0,0,1,3.535-1.179,10.833,10.833,0,0,1,3.986,2.28,17.539,17.539,0,0,1,3.456,3.764c.391.57-.537,1.106-.925.541" transform="translate(-191.447 -155.471)" fill="#f3806e"/>
            <path id="Path_451" data-name="Path 451" d="M105.7,248.641c-.029-.081-.059-.163-.091-.244l-.039-.1c.034.081-.012-.025-.018-.04q-.1-.226-.218-.445a7.036,7.036,0,0,0-.528-.837l-.063-.084c.051.067-.019-.024-.028-.035-.049-.062-.1-.122-.15-.181q-.161-.189-.335-.365t-.36-.34c-.065-.057-.132-.114-.2-.168l-.081-.065c.074.058-.056-.042-.058-.043a.549.549,0,0,1-.192-.733.541.541,0,0,1,.732-.192,7.65,7.65,0,0,1,2.661,3.584.539.539,0,0,1-.374.659.549.549,0,0,1-.659-.374" transform="translate(-34.079 -150.261)" fill="#f3806e"/>
            <path id="Path_452" data-name="Path 452" d="M15.97,170.286c3.247,6.28,4.691,13.3,6.6,20.11S27,204.1,31.9,209.195a11.491,11.491,0,0,0,4.992,3.331,5.577,5.577,0,0,0,5.606-1.337,12.739,12.739,0,0,1-10.142,8.757c-2.454.355-4.968-.027-7.427.292-3.434.446-6.552,2.227-9.925,3.011a17.533,17.533,0,0,1-8.566-.169,1.611,1.611,0,0,1-.959-.54,1.677,1.677,0,0,1-.215-.773c-.957-8.754-1.988-17.525-2.593-26.311a10.068,10.068,0,0,0,7.669,1.743,5.408,5.408,0,0,0,3.175-1.655c1.327-1.575,1.147-3.886.861-5.925a193.253,193.253,0,0,0-4.1-20.84c-.683-2.681-1.48-5.455-3.339-7.5-1.572-1.733-3.66-2.331-5.484-3.626.8-.534,2.517.528,3.268.9a20.581,20.581,0,0,1,3.346,2.072,26.536,26.536,0,0,1,5.574,5.838,32.018,32.018,0,0,1,2.33,3.831" transform="translate(69.476 -96.718)" fill="#f3806e"/>
          </g>
        </g>
      </g>
    </g>
  </g>
</svg>
